<svg width="512" height="512" viewBox="0 0 512 512" fill="none" xmlns="http://www.w3.org/2000/svg">
  <defs>
    <linearGradient id="shieldLeft" x1="116" y1="96" x2="356" y2="392" gradientUnits="userSpaceOnUse">
      <stop stop-color="#2A9BEA" />
      <stop offset="1" stop-color="#3B3AAE" />
    </linearGradient>
    <linearGradient id="shieldRight" x1="274" y1="72" x2="424" y2="330" gradientUnits="userSpaceOnUse">
      <stop stop-color="#5251D1" />
      <stop offset="1" stop-color="#1FA3D7" />
    </linearGradient>
    <linearGradient id="lowerLeft" x1="138" y1="286" x2="278" y2="472" gradientUnits="userSpaceOnUse">
      <stop stop-color="#7C42D7" />
      <stop offset="1" stop-color="#3438A5" />
    </linearGradient>
    <linearGradient id="lowerRight" x1="270" y1="288" x2="356" y2="468" gradientUnits="userSpaceOnUse">
      <stop stop-color="#4D3BB0" />
      <stop offset="1" stop-color="#6837B8" />
    </linearGradient>
    <clipPath id="topShieldClip">
      <path d="M255.31 72C221.68 102.4 169.1 113.84 116 106.31V200.2C116 309.84 177.07 384.58 255.31 424C333.55 384.58 394.62 309.84 394.62 200.2V106.31C341.52 113.84 288.94 102.4 255.31 72Z" />
    </clipPath>
  </defs>

  <g clip-path="url(#topShieldClip)">
    <path d="M255.31 72C221.68 102.4 169.1 113.84 116 106.31V200.2C116 309.84 177.07 384.58 255.31 424C333.55 384.58 394.62 309.84 394.62 200.2V106.31C341.52 113.84 288.94 102.4 255.31 72Z" fill="url(#shieldLeft)" />
    <rect x="255" y="58" width="180" height="386" fill="url(#shieldRight)" />
  </g>

  <path d="M118 288.92L183.69 356.55C233.08 407.39 302.31 433 373.02 427.05L315.57 488C279.42 471.62 237.17 443.73 205.9 403.41C166.64 352.79 138.55 296.89 118 288.92Z" fill="url(#lowerLeft)" />
  <path d="M255.72 355.18L374.74 427.05L315.57 488C292.73 477.65 272.23 465.46 255.72 452.38V355.18Z" fill="url(#lowerRight)" />

  <path d="M106 198C173.86 272.37 235.83 322.2 305.89 348.29C338.95 360.59 373.75 366.19 407.37 364.42L369.15 413C338.39 414.58 306.82 409.08 276.1 397.65C196.28 367.93 127.26 309.91 69 231.16L106 198Z" fill="#050505" />
</svg>
