<svg width="512" height="512" viewBox="0 0 512 512" fill="none" xmlns="http://www.w3.org/2000/svg">
  <defs>
    <linearGradient id="bodyGrad" x1="176" y1="266" x2="336" y2="380" gradientUnits="userSpaceOnUse">
      <stop stop-color="#20B7DB" />
      <stop offset="1" stop-color="#1EC8DE" />
    </linearGradient>
    <linearGradient id="bodyShade" x1="256" y1="252" x2="320" y2="374" gradientUnits="userSpaceOnUse">
      <stop stop-color="#1DB0D7" />
      <stop offset="1" stop-color="#12C4E0" />
    </linearGradient>
  </defs>

  <path d="M191 162V121L177 111V93L191 83L205 93V111L198 117V162H191Z" fill="#16245A"/>
  <path d="M160 186V150L146 140V122L160 112L174 122V140L167 146V186H160Z" fill="#16245A"/>
  <path d="M132 238V202L118 192V174L132 164L146 174V192L139 198V238H132Z" fill="#16245A"/>
  <path d="M321 162V121L335 111V93L321 83L307 93V111L314 117V162H321Z" fill="#16245A"/>
  <path d="M352 186V150L366 140V122L352 112L338 122V140L345 146V186H352Z" fill="#16245A"/>
  <path d="M380 238V202L394 192V174L380 164L366 174V192L373 198V238H380Z" fill="#16245A"/>

  <circle cx="191" cy="97" r="11" stroke="#16245A" stroke-width="6"/>
  <circle cx="160" cy="126" r="11" stroke="#16245A" stroke-width="6"/>
  <circle cx="132" cy="178" r="11" stroke="#16245A" stroke-width="6"/>
  <circle cx="321" cy="97" r="11" stroke="#16245A" stroke-width="6"/>
  <circle cx="352" cy="126" r="11" stroke="#16245A" stroke-width="6"/>
  <circle cx="380" cy="178" r="11" stroke="#16245A" stroke-width="6"/>

  <path d="M198 223C198 191.52 223.52 166 255 166H257C288.48 166 314 191.52 314 223V266H198V223Z" fill="#1B2860"/>
  <path d="M223 209C223 189.12 239.12 173 259 173C278.88 173 295 189.12 295 209V223H223V209Z" fill="#1B2860"/>
  <path d="M223 202C241.83 196.28 260.48 196.28 279 202L276 226C262.08 222.22 248.08 222.22 234 226L223 202Z" fill="#F6AE34"/>

  <path d="M176 266H336L355 294V367H157V294L176 266Z" fill="#1B2860"/>
  <path d="M176 266H336L325 367H187L176 266Z" fill="url(#bodyGrad)"/>
  <path d="M278 266H336L325 367H223L278 266Z" fill="url(#bodyShade)"/>
  <circle cx="252" cy="289" r="9" fill="#F6AE34"/>

  <rect x="139" y="303" width="22" height="10" fill="#16245A"/>
  <rect x="351" y="303" width="22" height="10" fill="#16245A"/>
  <path d="M111 304L118 292H132L139 304L132 316H118L111 304Z" fill="#F6AE34"/>
  <path d="M373 304L380 292H394L401 304L394 316H380L373 304Z" fill="#F6AE34"/>
  <path d="M111 333L118 321H132L139 333L132 345H118L111 333Z" fill="#1DB8DA"/>
  <path d="M373 333L380 321H394L401 333L394 345H380L373 333Z" fill="#1DB8DA"/>
</svg>
