<svg width="512" height="512" viewBox="0 0 512 512" fill="none" xmlns="http://www.w3.org/2000/svg">
  <defs>
    <linearGradient id="bg" x1="96" y1="80" x2="416" y2="432" gradientUnits="userSpaceOnUse">
      <stop stop-color="#2EA5FF" />
      <stop offset="1" stop-color="#2954E8" />
    </linearGradient>
    <linearGradient id="shieldLeft" x1="162" y1="160" x2="284" y2="314" gradientUnits="userSpaceOnUse">
      <stop stop-color="#2A9BEA" />
      <stop offset="1" stop-color="#3B3AAE" />
    </linearGradient>
    <linearGradient id="shieldRight" x1="255" y1="144" x2="360" y2="286" gradientUnits="userSpaceOnUse">
      <stop stop-color="#5251D1" />
      <stop offset="1" stop-color="#1FA3D7" />
    </linearGradient>
    <linearGradient id="lowerLeft" x1="170" y1="258" x2="266" y2="388" gradientUnits="userSpaceOnUse">
      <stop stop-color="#7C42D7" />
      <stop offset="1" stop-color="#3438A5" />
    </linearGradient>
    <linearGradient id="lowerRight" x1="257" y1="260" x2="322" y2="390" gradientUnits="userSpaceOnUse">
      <stop stop-color="#4D3BB0" />
      <stop offset="1" stop-color="#6837B8" />
    </linearGradient>
    <clipPath id="topShieldClip">
      <path d="M255.31 145C229.91 167.96 190.19 176.6 150.08 170.91V241.82C150.08 324.67 196.21 381.17 255.31 410.97C314.41 381.17 360.54 324.67 360.54 241.82V170.91C320.43 176.6 280.71 167.96 255.31 145Z" />
    </clipPath>
  </defs>

  <rect x="96" y="80" width="320" height="320" rx="68" fill="url(#bg)" />

  <g clip-path="url(#topShieldClip)">
    <path d="M255.31 145C229.91 167.96 190.19 176.6 150.08 170.91V241.82C150.08 324.67 196.21 381.17 255.31 410.97C314.41 381.17 360.54 324.67 360.54 241.82V170.91C320.43 176.6 280.71 167.96 255.31 145Z" fill="url(#shieldLeft)" />
    <rect x="255" y="136" width="128" height="280" fill="url(#shieldRight)" />
  </g>

  <path d="M151.83 300.47L201.49 351.59C238.84 390.03 291.18 409.4 344.63 404.9L301.2 451C273.88 438.62 241.95 417.54 218.31 387.07C188.64 348.82 167.41 306.58 151.83 300.47Z" fill="url(#lowerLeft)" />
  <path d="M255.62 350.55L345.93 405L301.2 451C283.87 443.15 268.31 433.91 255.62 423.99V350.55Z" fill="url(#lowerRight)" />

  <path d="M143 239.5C194.49 295.98 241.52 333.83 294.66 353.62C319.73 362.95 346.12 367.19 371.63 365.85L342.62 402.75C319.28 403.95 295.33 399.78 272.02 391.11C211.45 368.56 159.08 324.55 114.88 264.72L143 239.5Z" fill="#050505" />
</svg>
